<svg xmlns="http://www.w3.org/2000/svg" viewBox="0 0 1200 630" role="img" aria-labelledby="ogt ogd">
  <title id="ogt">Zim News Open Graph Image</title>
  <desc id="ogd">Marketing banner with gradient background, stylized Z and tagline</desc>
  <defs>
    <linearGradient id="bg" x1="0" y1="0" x2="1" y2="1">
      <stop offset="0%" stop-color="#0ea5e9"/>
      <stop offset="50%" stop-color="#0284c7"/>
      <stop offset="100%" stop-color="#0369a1"/>
    </linearGradient>
    <radialGradient id="flare" cx="0.78" cy="0.2" r="0.6">
      <stop offset="0%" stop-color="#ffffff" stop-opacity="0.55" />
      <stop offset="70%" stop-color="#ffffff" stop-opacity="0" />
    </radialGradient>
    <linearGradient id="zgrad2" x1="0" y1="0" x2="1" y2="1">
      <stop offset="0%" stop-color="#FFD100"/>
      <stop offset="33%" stop-color="#DE2010"/>
      <stop offset="66%" stop-color="#009639"/>
      <stop offset="100%" stop-color="#ffffff"/>
    </linearGradient>
  </defs>
  <rect width="1200" height="630" fill="url(#bg)" />
  <rect width="1200" height="630" fill="url(#flare)" />
  <g transform="translate(140 95)">
    <path d="M0 0h560c20 0 28 26 12 38L260 380h300c20 0 28 26 12 38l-140 110H0c-18 0-28-22-16-35l390-400H40c-24 0-34-30-16-46L0 0Z" fill="url(#zgrad2)" filter="url(#shadow)"/>
  </g>
  <text x="640" y="250" font-family="'Inter', system-ui, sans-serif" font-size="72" font-weight="700" fill="#ffffff" letter-spacing="1">Zim News Aggregator</text>
  <text x="640" y="330" font-family="'Inter', system-ui, sans-serif" font-size="34" font-weight="400" fill="#dbeafe">Real-time Unified Zimbabwean News Intelligence</text>
  <text x="640" y="400" font-family="'Inter', system-ui, sans-serif" font-size="24" fill="#bae6fd">Multi-source • Transparent • Searchable • Fast</text>
</svg>
